%TF.GenerationSoftware,KiCad,Pcbnew,(6.0.2)*%
%TF.CreationDate,2022-07-11T18:19:18+02:00*%
%TF.ProjectId,ESP32-MicroView,45535033-322d-44d6-9963-726f56696577,rev?*%
%TF.SameCoordinates,Original*%
%TF.FileFunction,Copper,L2,Inr*%
%TF.FilePolarity,Positive*%
%FSLAX46Y46*%
G04 Gerber Fmt 4.6, Leading zero omitted, Abs format (unit mm)*
G04 Created by KiCad (PCBNEW (6.0.2)) date 2022-07-11 18:19:18*
%MOMM*%
%LPD*%
G01*
G04 APERTURE LIST*
%TA.AperFunction,ComponentPad*%
%ADD10C,0.750000*%
%TD*%
%TA.AperFunction,ComponentPad*%
%ADD11O,1.800000X1.200000*%
%TD*%
%TA.AperFunction,ComponentPad*%
%ADD12O,2.000000X1.100000*%
%TD*%
%TA.AperFunction,ComponentPad*%
%ADD13C,0.950000*%
%TD*%
%TA.AperFunction,ViaPad*%
%ADD14C,0.800000*%
%TD*%
G04 APERTURE END LIST*
D10*
%TO.N,*%
%TO.C,USBC1*%
X71232900Y-46449200D03*
X71232900Y-40669200D03*
D11*
%TO.N,GND*%
X67642900Y-39239200D03*
D12*
X71842900Y-47879200D03*
X71842900Y-39239200D03*
D11*
X67642900Y-47879200D03*
%TD*%
D13*
%TO.N,*%
%TO.C,S2*%
X77031200Y-38358000D03*
X79331200Y-38358000D03*
%TD*%
%TO.N,*%
%TO.C,S1*%
X79331200Y-48552300D03*
X77031200Y-48552300D03*
%TD*%
D14*
%TO.N,+5V*%
X67208400Y-45872400D03*
%TO.N,GND*%
X95300800Y-37541200D03*
X70053200Y-39725600D03*
X100787200Y-39580100D03*
X89865200Y-44043600D03*
X66090800Y-46990000D03*
X89865200Y-48463200D03*
X92198775Y-47294800D03*
X83820000Y-39725600D03*
X68122800Y-45364400D03*
X97332800Y-48818800D03*
X87934800Y-40386000D03*
X95808800Y-42570400D03*
X98755200Y-37541200D03*
X67665600Y-43484800D03*
%TO.N,EN*%
X78365595Y-49294748D03*
X101955600Y-49530000D03*
%TO.N,+3V3*%
X100787200Y-38150800D03*
X79552800Y-41554400D03*
X96520000Y-37541200D03*
X100787200Y-49174400D03*
X93827600Y-41706800D03*
X91744800Y-43586400D03*
X100838000Y-42621200D03*
X69410350Y-43146750D03*
X74523600Y-45161200D03*
%TO.N,LCD_RESET*%
X84429600Y-44450000D03*
X96226000Y-39881364D03*
%TO.N,LCD_RS*%
X88788391Y-47666600D03*
X100736400Y-43688000D03*
%TO.N,LCD_DATA*%
X86560600Y-42621200D03*
X99314000Y-40795000D03*
%TO.N,IO2*%
X96520000Y-38540703D03*
X86715600Y-37439600D03*
%TO.N,LCD_CS*%
X97212451Y-39720369D03*
X84632800Y-41838702D03*
%TO.N,RX*%
X92862400Y-45618400D03*
%TO.N,TX*%
X73290612Y-37554988D03*
X91795600Y-44955400D03*
X68732400Y-37592000D03*
%TO.N,LCD_BL*%
X100172700Y-41605200D03*
X96621600Y-46939200D03*
%TO.N,UPLOAD*%
X100124200Y-46024800D03*
X81737200Y-39268400D03*
%TO.N,USB_N*%
X95554800Y-46939211D03*
X74268881Y-43734879D03*
%TO.N,USB_P*%
X93675200Y-46612691D03*
X74218800Y-42672000D03*
%TD*%
%TA.AperFunction,Conductor*%
%TO.N,+3V3*%
G36*
X86542158Y-36647302D02*
G01*
X86588651Y-36700958D01*
X86598755Y-36771232D01*
X86569261Y-36835812D01*
X86522254Y-36869709D01*
X86412759Y-36915064D01*
X86406208Y-36920091D01*
X86294408Y-37005878D01*
X86287318Y-37011318D01*
X86282295Y-37017864D01*
X86275061Y-37027292D01*
X86191064Y-37136759D01*
X86130556Y-37282838D01*
X86109918Y-37439600D01*
X86130556Y-37596362D01*
X86191064Y-37742441D01*
X86287318Y-37867882D01*
X86412759Y-37964136D01*
X86558838Y-38024644D01*
X86715600Y-38045282D01*
X86723788Y-38044204D01*
X86864174Y-38025722D01*
X86872362Y-38024644D01*
X87018441Y-37964136D01*
X87143882Y-37867882D01*
X87240136Y-37742441D01*
X87300644Y-37596362D01*
X87321282Y-37439600D01*
X87300644Y-37282838D01*
X87240136Y-37136759D01*
X87156139Y-37027292D01*
X87148905Y-37017864D01*
X87143882Y-37011318D01*
X87136793Y-37005878D01*
X87024992Y-36920091D01*
X87018441Y-36915064D01*
X86908946Y-36869709D01*
X86853664Y-36825160D01*
X86831243Y-36757797D01*
X86848801Y-36689006D01*
X86900763Y-36640627D01*
X86957163Y-36627300D01*
X88619143Y-36627300D01*
X88687264Y-36647302D01*
X88733757Y-36700958D01*
X88745120Y-36755723D01*
X88697253Y-39244824D01*
X88696800Y-39268400D01*
X93522800Y-39268400D01*
X93522800Y-37541200D01*
X94695118Y-37541200D01*
X94715756Y-37697962D01*
X94776264Y-37844041D01*
X94825639Y-37908388D01*
X94864559Y-37959109D01*
X94872518Y-37969482D01*
X94997959Y-38065736D01*
X95144038Y-38126244D01*
X95300800Y-38146882D01*
X95308988Y-38145804D01*
X95449374Y-38127322D01*
X95457562Y-38126244D01*
X95603641Y-38065736D01*
X95729082Y-37969482D01*
X95737042Y-37959109D01*
X95775961Y-37908388D01*
X95825336Y-37844041D01*
X95885844Y-37697962D01*
X95906482Y-37541200D01*
X98149518Y-37541200D01*
X98170156Y-37697962D01*
X98230664Y-37844041D01*
X98280039Y-37908388D01*
X98318959Y-37959109D01*
X98326918Y-37969482D01*
X98452359Y-38065736D01*
X98598438Y-38126244D01*
X98755200Y-38146882D01*
X98763388Y-38145804D01*
X98903774Y-38127322D01*
X98911962Y-38126244D01*
X99058041Y-38065736D01*
X99183482Y-37969482D01*
X99191442Y-37959109D01*
X99230361Y-37908388D01*
X99279736Y-37844041D01*
X99340244Y-37697962D01*
X99360882Y-37541200D01*
X99340244Y-37384438D01*
X99279736Y-37238359D01*
X99183482Y-37112918D01*
X99058041Y-37016664D01*
X98911962Y-36956156D01*
X98755200Y-36935518D01*
X98598438Y-36956156D01*
X98452359Y-37016664D01*
X98326918Y-37112918D01*
X98230664Y-37238359D01*
X98170156Y-37384438D01*
X98149518Y-37541200D01*
X95906482Y-37541200D01*
X95885844Y-37384438D01*
X95825336Y-37238359D01*
X95729082Y-37112918D01*
X95603641Y-37016664D01*
X95457562Y-36956156D01*
X95300800Y-36935518D01*
X95144038Y-36956156D01*
X94997959Y-37016664D01*
X94872518Y-37112918D01*
X94776264Y-37238359D01*
X94715756Y-37384438D01*
X94695118Y-37541200D01*
X93522800Y-37541200D01*
X93522800Y-36753300D01*
X93542802Y-36685179D01*
X93596458Y-36638686D01*
X93648800Y-36627300D01*
X102591100Y-36627300D01*
X102659221Y-36647302D01*
X102705714Y-36700958D01*
X102717100Y-36753300D01*
X102717100Y-38329100D01*
X102697098Y-38397221D01*
X102643442Y-38443714D01*
X102591100Y-38455100D01*
X101803299Y-38455100D01*
X101803200Y-38455059D01*
X101803101Y-38455100D01*
X101802817Y-38455217D01*
X101802659Y-38455600D01*
X101802700Y-38455699D01*
X101802700Y-48717101D01*
X101802659Y-48717200D01*
X101802700Y-48717299D01*
X101802817Y-48717583D01*
X101803200Y-48717741D01*
X101803299Y-48717700D01*
X101809455Y-48717700D01*
X101823648Y-48735381D01*
X101857840Y-48769590D01*
X101872915Y-48838968D01*
X101848088Y-48905482D01*
X101795456Y-48946357D01*
X101652759Y-49005464D01*
X101527318Y-49101718D01*
X101431064Y-49227159D01*
X101370556Y-49373238D01*
X101349918Y-49530000D01*
X101370556Y-49686762D01*
X101431064Y-49832841D01*
X101527318Y-49958282D01*
X101652759Y-50054536D01*
X101731232Y-50087041D01*
X101762255Y-50099891D01*
X101817536Y-50144440D01*
X101839957Y-50211803D01*
X101822399Y-50280594D01*
X101770437Y-50328973D01*
X101714037Y-50342300D01*
X65506100Y-50342300D01*
X65437979Y-50322298D01*
X65391486Y-50268642D01*
X65380100Y-50216300D01*
X65380100Y-47421412D01*
X65400102Y-47353291D01*
X65453758Y-47306798D01*
X65524032Y-47296694D01*
X65588612Y-47326188D01*
X65606062Y-47344707D01*
X65662518Y-47418282D01*
X65669064Y-47423305D01*
X65695219Y-47443374D01*
X65787959Y-47514536D01*
X65934038Y-47575044D01*
X66090800Y-47595682D01*
X66098988Y-47594604D01*
X66239374Y-47576122D01*
X66247562Y-47575044D01*
X66393641Y-47514536D01*
X66394098Y-47515639D01*
X66455288Y-47500794D01*
X66522381Y-47524013D01*
X66566269Y-47579819D01*
X66573020Y-47650494D01*
X66567995Y-47668918D01*
X66560981Y-47688614D01*
X66560980Y-47688619D01*
X66558619Y-47695249D01*
X66557786Y-47702235D01*
X66557785Y-47702239D01*
X66545317Y-47806800D01*
X66537355Y-47873576D01*
X66538091Y-47880579D01*
X66538091Y-47880580D01*
X66554890Y-48040409D01*
X66556127Y-48052183D01*
X66558398Y-48058854D01*
X66611281Y-48214196D01*
X66614003Y-48222193D01*
X66617693Y-48228191D01*
X66617694Y-48228193D01*
X66632961Y-48253009D01*
X66708106Y-48375155D01*
X66713032Y-48380186D01*
X66713035Y-48380189D01*
X66773876Y-48442317D01*
X66833759Y-48503468D01*
X66839684Y-48507287D01*
X66839686Y-48507288D01*
X66917333Y-48557328D01*
X66984717Y-48600754D01*
X66991337Y-48603163D01*
X66991340Y-48603165D01*
X67146861Y-48659770D01*
X67146864Y-48659771D01*
X67153478Y-48662178D01*
X67180021Y-48665531D01*
X67288255Y-48679204D01*
X67288258Y-48679204D01*
X67292183Y-48679700D01*
X67988055Y-48679700D01*
X68121372Y-48664746D01*
X68128747Y-48662178D01*
X68222011Y-48629700D01*
X68290973Y-48605685D01*
X68298865Y-48600754D01*
X68437301Y-48514249D01*
X68443275Y-48510516D01*
X68535044Y-48419385D01*
X68565710Y-48388933D01*
X68565713Y-48388929D01*
X68570707Y-48383970D01*
X68593790Y-48347598D01*
X68627636Y-48294264D01*
X68666937Y-48232336D01*
X68685423Y-48180421D01*
X68724819Y-48069786D01*
X68724820Y-48069781D01*
X68727181Y-48063151D01*
X68728014Y-48056165D01*
X68728015Y-48056161D01*
X68747611Y-47891817D01*
X68748445Y-47884824D01*
X68747631Y-47877078D01*
X68730410Y-47713225D01*
X68730409Y-47713221D01*
X68729673Y-47706217D01*
X68691677Y-47594604D01*
X68674068Y-47542877D01*
X68674067Y-47542874D01*
X68671797Y-47536207D01*
X68665101Y-47525322D01*
X68602339Y-47423305D01*
X68577694Y-47383245D01*
X68572768Y-47378214D01*
X68572765Y-47378211D01*
X68499101Y-47302988D01*
X68452041Y-47254932D01*
X68445270Y-47250568D01*
X68307009Y-47161465D01*
X68301083Y-47157646D01*
X68294463Y-47155237D01*
X68294460Y-47155235D01*
X68138939Y-47098630D01*
X68138936Y-47098629D01*
X68132322Y-47096222D01*
X68075592Y-47089056D01*
X67997545Y-47079196D01*
X67997542Y-47079196D01*
X67993617Y-47078700D01*
X67297745Y-47078700D01*
X67164428Y-47093654D01*
X67157775Y-47095971D01*
X67157774Y-47095971D01*
X67135861Y-47103602D01*
X66994827Y-47152715D01*
X66988848Y-47156451D01*
X66988846Y-47156452D01*
X66872958Y-47228866D01*
X66804589Y-47248002D01*
X66736728Y-47227137D01*
X66690920Y-47172895D01*
X66681267Y-47105567D01*
X66696482Y-46990000D01*
X66675844Y-46833238D01*
X66615336Y-46687159D01*
X66519082Y-46561718D01*
X66393641Y-46465464D01*
X66247562Y-46404956D01*
X66214179Y-46400561D01*
X66098988Y-46385396D01*
X66090800Y-46384318D01*
X66082612Y-46385396D01*
X65967422Y-46400561D01*
X65934038Y-46404956D01*
X65787959Y-46465464D01*
X65662518Y-46561718D01*
X65610263Y-46629819D01*
X65606063Y-46635292D01*
X65548725Y-46677159D01*
X65477854Y-46681381D01*
X65415951Y-46646617D01*
X65382670Y-46583905D01*
X65380100Y-46558588D01*
X65380100Y-45872400D01*
X66602718Y-45872400D01*
X66603796Y-45880588D01*
X66620440Y-46007009D01*
X66623356Y-46029162D01*
X66683864Y-46175241D01*
X66780118Y-46300682D01*
X66905559Y-46396936D01*
X67051638Y-46457444D01*
X67059826Y-46458522D01*
X67102325Y-46464117D01*
X67208400Y-46478082D01*
X67216588Y-46477004D01*
X67356974Y-46458522D01*
X67365162Y-46457444D01*
X67483692Y-46408347D01*
X70583554Y-46408347D01*
X70586643Y-46457444D01*
X70593203Y-46561718D01*
X70593794Y-46571116D01*
X70596243Y-46578652D01*
X70596243Y-46578654D01*
X70609963Y-46620879D01*
X70644192Y-46726225D01*
X70648440Y-46732918D01*
X70648440Y-46732919D01*
X70672140Y-46770264D01*
X70731581Y-46863927D01*
X70850469Y-46975571D01*
X70967055Y-47039664D01*
X71017112Y-47090008D01*
X71032006Y-47159425D01*
X71007005Y-47225874D01*
X70975439Y-47255449D01*
X70968545Y-47259969D01*
X70915419Y-47294800D01*
X70908215Y-47299523D01*
X70787860Y-47426572D01*
X70699961Y-47577902D01*
X70649233Y-47745393D01*
X70638397Y-47920062D01*
X70639637Y-47927278D01*
X70639637Y-47927280D01*
X70662984Y-48063151D01*
X70668034Y-48092540D01*
X70736554Y-48253573D01*
X70840283Y-48394524D01*
X70845861Y-48399263D01*
X70845864Y-48399266D01*
X70968076Y-48503093D01*
X70968080Y-48503096D01*
X70973655Y-48507832D01*
X71004513Y-48523589D01*
X71070587Y-48557328D01*
X71129516Y-48587419D01*
X71136621Y-48589158D01*
X71136625Y-48589159D01*
X71204163Y-48605685D01*
X71299506Y-48629015D01*
X71305106Y-48629362D01*
X71305110Y-48629363D01*
X71308609Y-48629580D01*
X71308618Y-48629580D01*
X71310548Y-48629700D01*
X72336722Y-48629700D01*
X72428269Y-48619027D01*
X72459456Y-48615391D01*
X72459458Y-48615391D01*
X72466728Y-48614543D01*
X72473605Y-48612047D01*
X72473608Y-48612046D01*
X72526381Y-48592890D01*
X76281723Y-48592890D01*
X76282963Y-48600105D01*
X76282963Y-48600108D01*
X76303170Y-48717700D01*
X76311163Y-48764218D01*
X76379227Y-48924179D01*
X76482264Y-49064191D01*
X76614748Y-49176744D01*
X76769571Y-49255800D01*
X76776677Y-49257539D01*
X76776680Y-49257540D01*
X76858515Y-49277565D01*
X76938428Y-49297120D01*
X76945929Y-49297585D01*
X76947449Y-49297680D01*
X76947462Y-49297680D01*
X76949390Y-49297800D01*
X77074730Y-49297800D01*
X77171139Y-49286560D01*
X77196598Y-49283592D01*
X77196600Y-49283592D01*
X77203870Y-49282744D01*
X77210747Y-49280248D01*
X77210750Y-49280247D01*
X77360398Y-49225927D01*
X77367277Y-49223430D01*
X77512656Y-49128115D01*
X77558214Y-49080023D01*
X77619583Y-49044325D01*
X77690510Y-49047473D01*
X77748476Y-49088466D01*
X77775077Y-49154291D01*
X77774609Y-49183120D01*
X77759913Y-49294748D01*
X77780551Y-49451510D01*
X77841059Y-49597589D01*
X77937313Y-49723030D01*
X78062754Y-49819284D01*
X78208833Y-49879792D01*
X78365595Y-49900430D01*
X78373783Y-49899352D01*
X78514169Y-49880870D01*
X78522357Y-49879792D01*
X78668436Y-49819284D01*
X78793877Y-49723030D01*
X78890131Y-49597589D01*
X78950639Y-49451510D01*
X78960967Y-49373064D01*
X78989688Y-49308138D01*
X79048953Y-49269046D01*
X79115837Y-49267122D01*
X79169475Y-49280247D01*
X79238428Y-49297120D01*
X79245929Y-49297585D01*
X79247449Y-49297680D01*
X79247462Y-49297680D01*
X79249390Y-49297800D01*
X79374730Y-49297800D01*
X79471139Y-49286560D01*
X79496598Y-49283592D01*
X79496600Y-49283592D01*
X79503870Y-49282744D01*
X79510747Y-49280248D01*
X79510750Y-49280247D01*
X79660398Y-49225927D01*
X79667277Y-49223430D01*
X79812656Y-49128115D01*
X79932209Y-49001912D01*
X80010882Y-48866466D01*
X80015844Y-48857924D01*
X80015845Y-48857921D01*
X80019522Y-48851591D01*
X80069913Y-48685215D01*
X80071288Y-48663060D01*
X80076094Y-48585579D01*
X80080677Y-48511710D01*
X80079197Y-48503093D01*
X80052477Y-48347598D01*
X80051237Y-48340382D01*
X79983173Y-48180421D01*
X79880136Y-48040409D01*
X79747652Y-47927856D01*
X79592829Y-47848800D01*
X79585723Y-47847061D01*
X79585720Y-47847060D01*
X79503885Y-47827035D01*
X79423972Y-47807480D01*
X79416471Y-47807015D01*
X79414951Y-47806920D01*
X79414938Y-47806920D01*
X79413010Y-47806800D01*
X79287670Y-47806800D01*
X79196971Y-47817374D01*
X79165802Y-47821008D01*
X79165800Y-47821008D01*
X79158530Y-47821856D01*
X79151653Y-47824352D01*
X79151650Y-47824353D01*
X79075129Y-47852129D01*
X78995123Y-47881170D01*
X78849744Y-47976485D01*
X78730191Y-48102688D01*
X78726514Y-48109019D01*
X78652226Y-48236916D01*
X78642878Y-48253009D01*
X78592487Y-48419385D01*
X78592034Y-48426694D01*
X78592033Y-48426697D01*
X78582413Y-48581769D01*
X78558232Y-48648520D01*
X78501800Y-48691602D01*
X78440209Y-48698889D01*
X78373783Y-48690144D01*
X78365595Y-48689066D01*
X78208833Y-48709704D01*
X78062754Y-48770212D01*
X77965833Y-48844582D01*
X77958595Y-48850136D01*
X77892375Y-48875736D01*
X77822826Y-48861471D01*
X77772030Y-48811870D01*
X77756114Y-48742680D01*
X77761301Y-48713649D01*
X77765771Y-48698889D01*
X77769913Y-48685215D01*
X77771288Y-48663060D01*
X77776094Y-48585579D01*
X77780677Y-48511710D01*
X77779197Y-48503093D01*
X77752477Y-48347598D01*
X77751237Y-48340382D01*
X77683173Y-48180421D01*
X77580136Y-48040409D01*
X77447652Y-47927856D01*
X77292829Y-47848800D01*
X77285723Y-47847061D01*
X77285720Y-47847060D01*
X77203885Y-47827035D01*
X77123972Y-47807480D01*
X77116471Y-47807015D01*
X77114951Y-47806920D01*
X77114938Y-47806920D01*
X77113010Y-47806800D01*
X76987670Y-47806800D01*
X76896971Y-47817374D01*
X76865802Y-47821008D01*
X76865800Y-47821008D01*
X76858530Y-47821856D01*
X76851653Y-47824352D01*
X76851650Y-47824353D01*
X76775129Y-47852129D01*
X76695123Y-47881170D01*
X76549744Y-47976485D01*
X76430191Y-48102688D01*
X76426514Y-48109019D01*
X76352226Y-48236916D01*
X76342878Y-48253009D01*
X76292487Y-48419385D01*
X76292034Y-48426694D01*
X76292033Y-48426697D01*
X76290277Y-48455012D01*
X76281723Y-48592890D01*
X72526381Y-48592890D01*
X72624352Y-48557328D01*
X72631231Y-48554831D01*
X72777585Y-48458877D01*
X72897940Y-48331828D01*
X72985839Y-48180498D01*
X73036567Y-48013007D01*
X73047403Y-47838338D01*
X73042005Y-47806920D01*
X73019006Y-47673075D01*
X73019005Y-47673073D01*
X73017893Y-47666600D01*
X88182709Y-47666600D01*
X88203347Y-47823362D01*
X88263855Y-47969441D01*
X88360109Y-48094882D01*
X88485550Y-48191136D01*
X88631629Y-48251644D01*
X88788391Y-48272282D01*
X88796579Y-48271204D01*
X88936965Y-48252722D01*
X88945153Y-48251644D01*
X88957147Y-48246676D01*
X89083606Y-48194295D01*
X89083607Y-48194294D01*
X89091232Y-48191136D01*
X89093476Y-48189414D01*
X89160029Y-48173270D01*
X89227120Y-48196492D01*
X89271006Y-48252300D01*
X89278953Y-48315573D01*
X89269949Y-48383970D01*
X89259518Y-48463200D01*
X89280156Y-48619962D01*
X89340664Y-48766041D01*
X89436918Y-48891482D01*
X89562359Y-48987736D01*
X89708438Y-49048244D01*
X89865200Y-49068882D01*
X89873388Y-49067804D01*
X90013774Y-49049322D01*
X90021962Y-49048244D01*
X90168041Y-48987736D01*
X90293482Y-48891482D01*
X90349253Y-48818800D01*
X96727118Y-48818800D01*
X96747756Y-48975562D01*
X96808264Y-49121641D01*
X96904518Y-49247082D01*
X96911064Y-49252105D01*
X96918147Y-49257540D01*
X97029959Y-49343336D01*
X97176038Y-49403844D01*
X97332800Y-49424482D01*
X97340988Y-49423404D01*
X97481374Y-49404922D01*
X97489562Y-49403844D01*
X97635641Y-49343336D01*
X97747453Y-49257540D01*
X97754536Y-49252105D01*
X97761082Y-49247082D01*
X97857336Y-49121641D01*
X97917844Y-48975562D01*
X97938482Y-48818800D01*
X97920169Y-48679700D01*
X97918922Y-48670226D01*
X97917844Y-48662038D01*
X97857336Y-48515959D01*
X97761082Y-48390518D01*
X97752549Y-48383970D01*
X97676345Y-48325497D01*
X97635641Y-48294264D01*
X97489562Y-48233756D01*
X97332800Y-48213118D01*
X97176038Y-48233756D01*
X97029959Y-48294264D01*
X96989255Y-48325497D01*
X96913052Y-48383970D01*
X96904518Y-48390518D01*
X96808264Y-48515959D01*
X96747756Y-48662038D01*
X96746678Y-48670226D01*
X96745431Y-48679700D01*
X96727118Y-48818800D01*
X90349253Y-48818800D01*
X90389736Y-48766041D01*
X90450244Y-48619962D01*
X90470882Y-48463200D01*
X90450244Y-48306438D01*
X90389736Y-48160359D01*
X90302222Y-48046308D01*
X90298505Y-48041464D01*
X90293482Y-48034918D01*
X90168041Y-47938664D01*
X90021962Y-47878156D01*
X89865200Y-47857518D01*
X89708438Y-47878156D01*
X89700809Y-47881316D01*
X89569988Y-47935504D01*
X89562359Y-47938664D01*
X89560115Y-47940386D01*
X89493562Y-47956530D01*
X89426471Y-47933308D01*
X89382585Y-47877500D01*
X89374638Y-47814227D01*
X89392995Y-47674788D01*
X89394073Y-47666600D01*
X89375475Y-47525333D01*
X89374513Y-47518026D01*
X89373435Y-47509838D01*
X89312927Y-47363759D01*
X89260013Y-47294800D01*
X91593093Y-47294800D01*
X91594171Y-47302988D01*
X91611275Y-47432903D01*
X91613731Y-47451562D01*
X91674239Y-47597641D01*
X91770493Y-47723082D01*
X91895934Y-47819336D01*
X92042013Y-47879844D01*
X92198775Y-47900482D01*
X92206963Y-47899404D01*
X92347349Y-47880922D01*
X92355537Y-47879844D01*
X92501616Y-47819336D01*
X92627057Y-47723082D01*
X92723311Y-47597641D01*
X92783819Y-47451562D01*
X92786276Y-47432903D01*
X92803379Y-47302988D01*
X92804457Y-47294800D01*
X92783819Y-47138038D01*
X92723311Y-46991959D01*
X92627057Y-46866518D01*
X92614961Y-46857236D01*
X92528185Y-46790651D01*
X92501616Y-46770264D01*
X92355537Y-46709756D01*
X92198775Y-46689118D01*
X92042013Y-46709756D01*
X91895934Y-46770264D01*
X91869365Y-46790651D01*
X91782590Y-46857236D01*
X91770493Y-46866518D01*
X91674239Y-46991959D01*
X91613731Y-47138038D01*
X91593093Y-47294800D01*
X89260013Y-47294800D01*
X89224565Y-47248603D01*
X89221696Y-47244864D01*
X89216673Y-47238318D01*
X89091232Y-47142064D01*
X88945153Y-47081556D01*
X88923460Y-47078700D01*
X88796579Y-47061996D01*
X88788391Y-47060918D01*
X88780203Y-47061996D01*
X88653323Y-47078700D01*
X88631629Y-47081556D01*
X88485550Y-47142064D01*
X88360109Y-47238318D01*
X88355086Y-47244864D01*
X88352217Y-47248603D01*
X88263855Y-47363759D01*
X88203347Y-47509838D01*
X88202269Y-47518026D01*
X88201307Y-47525333D01*
X88182709Y-47666600D01*
X73017893Y-47666600D01*
X73017766Y-47665860D01*
X72954722Y-47517696D01*
X72952111Y-47511560D01*
X72952111Y-47511559D01*
X72949246Y-47504827D01*
X72845517Y-47363876D01*
X72839939Y-47359137D01*
X72839936Y-47359134D01*
X72717724Y-47255307D01*
X72717720Y-47255304D01*
X72712145Y-47250568D01*
X72631328Y-47209301D01*
X72562800Y-47174308D01*
X72562798Y-47174307D01*
X72556284Y-47170981D01*
X72549179Y-47169242D01*
X72549175Y-47169241D01*
X72455118Y-47146226D01*
X72386294Y-47129385D01*
X72380694Y-47129038D01*
X72380690Y-47129037D01*
X72377191Y-47128820D01*
X72377182Y-47128820D01*
X72375252Y-47128700D01*
X71776285Y-47128700D01*
X71708164Y-47108698D01*
X71661671Y-47055042D01*
X71651567Y-46984768D01*
X71679200Y-46922385D01*
X71684870Y-46915532D01*
X71782245Y-46797825D01*
X71785628Y-46790637D01*
X71799449Y-46761265D01*
X71851686Y-46650256D01*
X71876964Y-46517745D01*
X71880761Y-46497839D01*
X71880761Y-46497837D01*
X71882246Y-46490053D01*
X71875594Y-46384318D01*
X71872504Y-46335195D01*
X71872504Y-46335193D01*
X71872006Y-46327284D01*
X71868821Y-46317480D01*
X71843961Y-46240971D01*
X71821608Y-46172175D01*
X71734219Y-46034473D01*
X71615331Y-45922829D01*
X71523600Y-45872400D01*
X71479362Y-45848080D01*
X71479361Y-45848079D01*
X71472413Y-45844260D01*
X71370206Y-45818017D01*
X71322123Y-45805671D01*
X71322122Y-45805671D01*
X71314446Y-45803700D01*
X71192292Y-45803700D01*
X71134477Y-45811004D01*
X71078960Y-45818017D01*
X71078957Y-45818018D01*
X71071095Y-45819011D01*
X71063729Y-45821928D01*
X71063727Y-45821928D01*
X70997675Y-45848080D01*
X70919457Y-45879049D01*
X70913044Y-45883709D01*
X70913041Y-45883710D01*
X70793930Y-45970248D01*
X70793926Y-45970252D01*
X70787513Y-45974911D01*
X70782460Y-45981019D01*
X70782458Y-45981021D01*
X70736320Y-46036793D01*
X70683555Y-46100575D01*
X70614114Y-46248144D01*
X70597508Y-46335195D01*
X70586690Y-46391909D01*
X70583554Y-46408347D01*
X67483692Y-46408347D01*
X67511241Y-46396936D01*
X67636682Y-46300682D01*
X67732936Y-46175241D01*
X67793444Y-46029162D01*
X67793539Y-46028442D01*
X67828673Y-45970800D01*
X67892534Y-45939779D01*
X67949856Y-45946288D01*
X67950430Y-45944146D01*
X67958409Y-45946284D01*
X67966038Y-45949444D01*
X68122800Y-45970082D01*
X68130988Y-45969004D01*
X68271374Y-45950522D01*
X68279562Y-45949444D01*
X68292353Y-45944146D01*
X68366070Y-45913611D01*
X68425641Y-45888936D01*
X68551082Y-45792682D01*
X68647336Y-45667241D01*
X68707844Y-45521162D01*
X68728482Y-45364400D01*
X68707844Y-45207638D01*
X68647336Y-45061559D01*
X68551082Y-44936118D01*
X68425641Y-44839864D01*
X68279562Y-44779356D01*
X68122800Y-44758718D01*
X67966038Y-44779356D01*
X67819959Y-44839864D01*
X67694518Y-44936118D01*
X67598264Y-45061559D01*
X67537756Y-45207638D01*
X67537661Y-45208358D01*
X67502527Y-45266000D01*
X67438666Y-45297021D01*
X67381344Y-45290512D01*
X67380770Y-45292654D01*
X67372791Y-45290516D01*
X67365162Y-45287356D01*
X67208400Y-45266718D01*
X67051638Y-45287356D01*
X67044009Y-45290516D01*
X67033347Y-45294932D01*
X66905559Y-45347864D01*
X66899008Y-45352891D01*
X66787208Y-45438678D01*
X66780118Y-45444118D01*
X66683864Y-45569559D01*
X66623356Y-45715638D01*
X66602718Y-45872400D01*
X65380100Y-45872400D01*
X65380100Y-44450000D01*
X83823918Y-44450000D01*
X83844556Y-44606762D01*
X83905064Y-44752841D01*
X84001318Y-44878282D01*
X84126759Y-44974536D01*
X84272838Y-45035044D01*
X84429600Y-45055682D01*
X84437788Y-45054604D01*
X84578174Y-45036122D01*
X84586362Y-45035044D01*
X84732441Y-44974536D01*
X84757380Y-44955400D01*
X91189918Y-44955400D01*
X91210556Y-45112162D01*
X91271064Y-45258241D01*
X91367318Y-45383682D01*
X91492759Y-45479936D01*
X91638838Y-45540444D01*
X91795600Y-45561082D01*
X91803788Y-45560004D01*
X91944174Y-45541522D01*
X91952362Y-45540444D01*
X92083580Y-45486092D01*
X92154167Y-45478503D01*
X92217654Y-45510282D01*
X92253882Y-45571340D01*
X92257796Y-45602501D01*
X92257796Y-45610212D01*
X92256718Y-45618400D01*
X92277356Y-45775162D01*
X92337864Y-45921241D01*
X92434118Y-46046682D01*
X92559559Y-46142936D01*
X92705638Y-46203444D01*
X92862400Y-46224082D01*
X92988495Y-46207481D01*
X93058642Y-46218420D01*
X93111741Y-46265548D01*
X93130931Y-46333902D01*
X93121349Y-46380620D01*
X93093317Y-46448296D01*
X93093316Y-46448300D01*
X93090156Y-46455929D01*
X93089078Y-46464117D01*
X93082018Y-46517745D01*
X93069518Y-46612691D01*
X93090156Y-46769453D01*
X93150664Y-46915532D01*
X93246918Y-47040973D01*
X93372359Y-47137227D01*
X93518438Y-47197735D01*
X93675200Y-47218373D01*
X93683388Y-47217295D01*
X93823774Y-47198813D01*
X93831962Y-47197735D01*
X93978041Y-47137227D01*
X94103482Y-47040973D01*
X94181567Y-46939211D01*
X94949118Y-46939211D01*
X94969756Y-47095973D01*
X95030264Y-47242052D01*
X95072192Y-47296694D01*
X95109035Y-47344708D01*
X95126518Y-47367493D01*
X95251959Y-47463747D01*
X95351135Y-47504827D01*
X95390383Y-47521084D01*
X95398038Y-47524255D01*
X95554800Y-47544893D01*
X95562988Y-47543815D01*
X95703374Y-47525333D01*
X95711562Y-47524255D01*
X95719218Y-47521084D01*
X95758465Y-47504827D01*
X95857641Y-47463747D01*
X95983082Y-47367493D01*
X95988106Y-47360946D01*
X95988238Y-47360774D01*
X95988386Y-47360666D01*
X95993950Y-47355102D01*
X95994817Y-47355969D01*
X96045574Y-47318904D01*
X96116445Y-47314679D01*
X96178349Y-47349440D01*
X96188167Y-47360770D01*
X96188292Y-47360933D01*
X96188295Y-47360936D01*
X96193318Y-47367482D01*
X96318759Y-47463736D01*
X96464838Y-47524244D01*
X96621600Y-47544882D01*
X96629788Y-47543804D01*
X96636830Y-47542877D01*
X96778362Y-47524244D01*
X96924441Y-47463736D01*
X97049882Y-47367482D01*
X97057766Y-47357208D01*
X97107156Y-47292841D01*
X97146136Y-47242041D01*
X97206644Y-47095962D01*
X97208683Y-47080478D01*
X97226204Y-46947388D01*
X97227282Y-46939200D01*
X97206644Y-46782438D01*
X97146136Y-46636359D01*
X97049882Y-46510918D01*
X96924441Y-46414664D01*
X96796653Y-46361732D01*
X96785991Y-46357316D01*
X96778362Y-46354156D01*
X96621600Y-46333518D01*
X96464838Y-46354156D01*
X96457209Y-46357316D01*
X96446547Y-46361732D01*
X96318759Y-46414664D01*
X96193318Y-46510918D01*
X96188295Y-46517464D01*
X96188294Y-46517465D01*
X96188162Y-46517637D01*
X96188014Y-46517745D01*
X96182450Y-46523309D01*
X96181583Y-46522442D01*
X96130826Y-46559507D01*
X96059955Y-46563732D01*
X95998051Y-46528971D01*
X95988233Y-46517641D01*
X95988108Y-46517478D01*
X95988105Y-46517475D01*
X95983082Y-46510929D01*
X95857641Y-46414675D01*
X95711562Y-46354167D01*
X95554800Y-46333529D01*
X95398038Y-46354167D01*
X95251959Y-46414675D01*
X95126518Y-46510929D01*
X95121495Y-46517475D01*
X95112674Y-46528971D01*
X95030264Y-46636370D01*
X94969756Y-46782449D01*
X94949118Y-46939211D01*
X94181567Y-46939211D01*
X94199736Y-46915532D01*
X94260244Y-46769453D01*
X94280882Y-46612691D01*
X94268382Y-46517745D01*
X94261322Y-46464117D01*
X94260244Y-46455929D01*
X94199736Y-46309850D01*
X94103482Y-46184409D01*
X94078815Y-46165481D01*
X93984592Y-46093182D01*
X93978041Y-46088155D01*
X93831962Y-46027647D01*
X93810337Y-46024800D01*
X99518518Y-46024800D01*
X99539156Y-46181562D01*
X99599664Y-46327641D01*
X99695918Y-46453082D01*
X99702464Y-46458105D01*
X99707936Y-46462304D01*
X99821359Y-46549336D01*
X99967438Y-46609844D01*
X100124200Y-46630482D01*
X100132388Y-46629404D01*
X100272774Y-46610922D01*
X100280962Y-46609844D01*
X100427041Y-46549336D01*
X100540464Y-46462304D01*
X100545936Y-46458105D01*
X100552482Y-46453082D01*
X100648736Y-46327641D01*
X100709244Y-46181562D01*
X100729882Y-46024800D01*
X100709244Y-45868038D01*
X100701968Y-45850471D01*
X100698578Y-45842288D01*
X100648736Y-45721959D01*
X100552482Y-45596518D01*
X100427041Y-45500264D01*
X100280962Y-45439756D01*
X100124200Y-45419118D01*
X99967438Y-45439756D01*
X99821359Y-45500264D01*
X99695918Y-45596518D01*
X99599664Y-45721959D01*
X99549822Y-45842288D01*
X99546433Y-45850471D01*
X99539156Y-45868038D01*
X99518518Y-46024800D01*
X93810337Y-46024800D01*
X93675200Y-46007009D01*
X93549105Y-46023610D01*
X93478958Y-46012671D01*
X93425859Y-45965543D01*
X93406669Y-45897189D01*
X93416251Y-45850471D01*
X93444283Y-45782795D01*
X93444284Y-45782790D01*
X93447444Y-45775162D01*
X93468082Y-45618400D01*
X93447444Y-45461638D01*
X93386936Y-45315559D01*
X93290682Y-45190118D01*
X93165241Y-45093864D01*
X93019162Y-45033356D01*
X92862400Y-45012718D01*
X92705638Y-45033356D01*
X92574420Y-45087708D01*
X92503833Y-45095297D01*
X92440346Y-45063518D01*
X92404118Y-45002460D01*
X92400204Y-44971299D01*
X92400204Y-44963588D01*
X92401282Y-44955400D01*
X92380644Y-44798638D01*
X92320136Y-44652559D01*
X92223882Y-44527118D01*
X92098441Y-44430864D01*
X91952362Y-44370356D01*
X91795600Y-44349718D01*
X91638838Y-44370356D01*
X91492759Y-44430864D01*
X91367318Y-44527118D01*
X91271064Y-44652559D01*
X91210556Y-44798638D01*
X91189918Y-44955400D01*
X84757380Y-44955400D01*
X84857882Y-44878282D01*
X84954136Y-44752841D01*
X85014644Y-44606762D01*
X85035282Y-44450000D01*
X85014644Y-44293238D01*
X84954136Y-44147159D01*
X84880955Y-44051788D01*
X84874672Y-44043600D01*
X89259518Y-44043600D01*
X89280156Y-44200362D01*
X89340664Y-44346441D01*
X89436918Y-44471882D01*
X89562359Y-44568136D01*
X89708438Y-44628644D01*
X89865200Y-44649282D01*
X89873388Y-44648204D01*
X89890069Y-44646008D01*
X90021962Y-44628644D01*
X90168041Y-44568136D01*
X90293482Y-44471882D01*
X90389736Y-44346441D01*
X90450244Y-44200362D01*
X90470882Y-44043600D01*
X90450244Y-43886838D01*
X90389736Y-43740759D01*
X90349253Y-43688000D01*
X100130718Y-43688000D01*
X100151356Y-43844762D01*
X100211864Y-43990841D01*
X100308118Y-44116282D01*
X100433559Y-44212536D01*
X100579638Y-44273044D01*
X100736400Y-44293682D01*
X100744588Y-44292604D01*
X100884974Y-44274122D01*
X100893162Y-44273044D01*
X101039241Y-44212536D01*
X101164682Y-44116282D01*
X101260936Y-43990841D01*
X101321444Y-43844762D01*
X101342082Y-43688000D01*
X101321444Y-43531238D01*
X101260936Y-43385159D01*
X101164682Y-43259718D01*
X101039241Y-43163464D01*
X100893162Y-43102956D01*
X100879870Y-43101206D01*
X100744588Y-43083396D01*
X100736400Y-43082318D01*
X100728212Y-43083396D01*
X100592931Y-43101206D01*
X100579638Y-43102956D01*
X100433559Y-43163464D01*
X100308118Y-43259718D01*
X100211864Y-43385159D01*
X100151356Y-43531238D01*
X100130718Y-43688000D01*
X90349253Y-43688000D01*
X90293482Y-43615318D01*
X90168041Y-43519064D01*
X90021962Y-43458556D01*
X89865200Y-43437918D01*
X89708438Y-43458556D01*
X89562359Y-43519064D01*
X89436918Y-43615318D01*
X89340664Y-43740759D01*
X89280156Y-43886838D01*
X89259518Y-44043600D01*
X84874672Y-44043600D01*
X84862905Y-44028264D01*
X84857882Y-44021718D01*
X84732441Y-43925464D01*
X84586362Y-43864956D01*
X84429600Y-43844318D01*
X84272838Y-43864956D01*
X84126759Y-43925464D01*
X84001318Y-44021718D01*
X83996295Y-44028264D01*
X83978245Y-44051788D01*
X83905064Y-44147159D01*
X83844556Y-44293238D01*
X83823918Y-44450000D01*
X65380100Y-44450000D01*
X65380100Y-43484800D01*
X67059918Y-43484800D01*
X67080556Y-43641562D01*
X67141064Y-43787641D01*
X67237318Y-43913082D01*
X67362759Y-44009336D01*
X67508838Y-44069844D01*
X67665600Y-44090482D01*
X67673788Y-44089404D01*
X67814174Y-44070922D01*
X67822362Y-44069844D01*
X67968441Y-44009336D01*
X68093882Y-43913082D01*
X68190136Y-43787641D01*
X68250644Y-43641562D01*
X68271282Y-43484800D01*
X68250644Y-43328038D01*
X68190136Y-43181959D01*
X68093882Y-43056518D01*
X68084713Y-43049482D01*
X68057682Y-43028741D01*
X67968441Y-42960264D01*
X67822362Y-42899756D01*
X67665600Y-42879118D01*
X67508838Y-42899756D01*
X67362759Y-42960264D01*
X67273518Y-43028741D01*
X67246488Y-43049482D01*
X67237318Y-43056518D01*
X67141064Y-43181959D01*
X67080556Y-43328038D01*
X67059918Y-43484800D01*
X65380100Y-43484800D01*
X65380100Y-42672000D01*
X73613118Y-42672000D01*
X73633756Y-42828762D01*
X73694264Y-42974841D01*
X73699291Y-42981392D01*
X73782559Y-43089909D01*
X73790518Y-43100282D01*
X73797064Y-43105305D01*
X73797065Y-43105306D01*
X73822471Y-43124801D01*
X73864338Y-43182139D01*
X73868559Y-43253010D01*
X73839394Y-43305673D01*
X73840599Y-43306597D01*
X73744345Y-43432038D01*
X73683837Y-43578117D01*
X73663199Y-43734879D01*
X73683837Y-43891641D01*
X73744345Y-44037720D01*
X73784831Y-44090482D01*
X73823294Y-44140608D01*
X73840599Y-44163161D01*
X73966040Y-44259415D01*
X74112119Y-44319923D01*
X74268881Y-44340561D01*
X74277069Y-44339483D01*
X74282174Y-44338811D01*
X74425643Y-44319923D01*
X74571722Y-44259415D01*
X74697163Y-44163161D01*
X74714469Y-44140608D01*
X74752931Y-44090482D01*
X74793417Y-44037720D01*
X74853925Y-43891641D01*
X74874563Y-43734879D01*
X74853925Y-43578117D01*
X74793417Y-43432038D01*
X74697163Y-43306597D01*
X74690616Y-43301573D01*
X74665210Y-43282078D01*
X74623343Y-43224740D01*
X74619122Y-43153869D01*
X74648287Y-43101206D01*
X74647082Y-43100282D01*
X74738309Y-42981392D01*
X74743336Y-42974841D01*
X74803844Y-42828762D01*
X74824482Y-42672000D01*
X74817794Y-42621200D01*
X85954918Y-42621200D01*
X85975556Y-42777962D01*
X86036064Y-42924041D01*
X86132318Y-43049482D01*
X86138864Y-43054505D01*
X86150018Y-43063064D01*
X86257759Y-43145736D01*
X86403838Y-43206244D01*
X86560600Y-43226882D01*
X86568788Y-43225804D01*
X86709174Y-43207322D01*
X86717362Y-43206244D01*
X86863441Y-43145736D01*
X86971182Y-43063064D01*
X86982336Y-43054505D01*
X86988882Y-43049482D01*
X87085136Y-42924041D01*
X87145644Y-42777962D01*
X87166282Y-42621200D01*
X87159594Y-42570400D01*
X95203118Y-42570400D01*
X95223756Y-42727162D01*
X95284264Y-42873241D01*
X95380518Y-42998682D01*
X95505959Y-43094936D01*
X95652038Y-43155444D01*
X95660226Y-43156522D01*
X95712956Y-43163464D01*
X95808800Y-43176082D01*
X95816988Y-43175004D01*
X95957374Y-43156522D01*
X95965562Y-43155444D01*
X96111641Y-43094936D01*
X96237082Y-42998682D01*
X96333336Y-42873241D01*
X96393844Y-42727162D01*
X96414482Y-42570400D01*
X96393844Y-42413638D01*
X96333336Y-42267559D01*
X96264859Y-42178318D01*
X96242105Y-42148664D01*
X96237082Y-42142118D01*
X96111641Y-42045864D01*
X95965562Y-41985356D01*
X95808800Y-41964718D01*
X95652038Y-41985356D01*
X95505959Y-42045864D01*
X95380518Y-42142118D01*
X95375495Y-42148664D01*
X95352741Y-42178318D01*
X95284264Y-42267559D01*
X95223756Y-42413638D01*
X95203118Y-42570400D01*
X87159594Y-42570400D01*
X87145644Y-42464438D01*
X87085136Y-42318359D01*
X86988882Y-42192918D01*
X86863441Y-42096664D01*
X86717362Y-42036156D01*
X86560600Y-42015518D01*
X86403838Y-42036156D01*
X86257759Y-42096664D01*
X86132318Y-42192918D01*
X86036064Y-42318359D01*
X85975556Y-42464438D01*
X85954918Y-42621200D01*
X74817794Y-42621200D01*
X74803844Y-42515238D01*
X74743336Y-42369159D01*
X74647082Y-42243718D01*
X74521641Y-42147464D01*
X74375562Y-42086956D01*
X74218800Y-42066318D01*
X74062038Y-42086956D01*
X73915959Y-42147464D01*
X73790518Y-42243718D01*
X73694264Y-42369159D01*
X73633756Y-42515238D01*
X73613118Y-42672000D01*
X65380100Y-42672000D01*
X65380100Y-41838702D01*
X84027118Y-41838702D01*
X84047756Y-41995464D01*
X84108264Y-42141543D01*
X84204518Y-42266984D01*
X84329959Y-42363238D01*
X84476038Y-42423746D01*
X84632800Y-42444384D01*
X84640988Y-42443306D01*
X84781374Y-42424824D01*
X84789562Y-42423746D01*
X84935641Y-42363238D01*
X85061082Y-42266984D01*
X85157336Y-42141543D01*
X85217844Y-41995464D01*
X85238482Y-41838702D01*
X85217844Y-41681940D01*
X85157336Y-41535861D01*
X85061082Y-41410420D01*
X84935641Y-41314166D01*
X84789562Y-41253658D01*
X84632800Y-41233020D01*
X84476038Y-41253658D01*
X84329959Y-41314166D01*
X84204518Y-41410420D01*
X84108264Y-41535861D01*
X84047756Y-41681940D01*
X84027118Y-41838702D01*
X65380100Y-41838702D01*
X65380100Y-39233576D01*
X66537355Y-39233576D01*
X66538091Y-39240579D01*
X66538091Y-39240580D01*
X66555086Y-39402277D01*
X66556127Y-39412183D01*
X66558398Y-39418854D01*
X66610275Y-39571241D01*
X66614003Y-39582193D01*
X66617693Y-39588191D01*
X66617694Y-39588193D01*
X66620243Y-39592336D01*
X66708106Y-39735155D01*
X66713032Y-39740186D01*
X66713035Y-39740189D01*
X66716738Y-39743970D01*
X66833759Y-39863468D01*
X66839684Y-39867287D01*
X66839686Y-39867288D01*
X66917333Y-39917328D01*
X66984717Y-39960754D01*
X66991337Y-39963163D01*
X66991340Y-39963165D01*
X67146861Y-40019770D01*
X67146864Y-40019771D01*
X67153478Y-40022178D01*
X67180021Y-40025531D01*
X67288255Y-40039204D01*
X67288258Y-40039204D01*
X67292183Y-40039700D01*
X67988055Y-40039700D01*
X68121372Y-40024746D01*
X68128747Y-40022178D01*
X68196351Y-39998636D01*
X68290973Y-39965685D01*
X68298865Y-39960754D01*
X68437301Y-39874249D01*
X68443275Y-39870516D01*
X68521398Y-39792936D01*
X68565710Y-39748933D01*
X68565713Y-39748929D01*
X68570707Y-39743970D01*
X68580489Y-39728557D01*
X68582366Y-39725600D01*
X69447518Y-39725600D01*
X69468156Y-39882362D01*
X69528664Y-40028441D01*
X69582843Y-40099049D01*
X69619129Y-40146337D01*
X69624918Y-40153882D01*
X69750359Y-40250136D01*
X69896438Y-40310644D01*
X70053200Y-40331282D01*
X70061388Y-40330204D01*
X70092934Y-40326051D01*
X70209962Y-40310644D01*
X70356041Y-40250136D01*
X70481482Y-40153882D01*
X70487272Y-40146337D01*
X70523557Y-40099049D01*
X70577736Y-40028441D01*
X70638244Y-39882362D01*
X70643509Y-39842367D01*
X70672231Y-39777441D01*
X70731495Y-39738348D01*
X70802487Y-39737503D01*
X70850010Y-39762788D01*
X70968075Y-39863092D01*
X70968078Y-39863094D01*
X70973655Y-39867832D01*
X70973779Y-39867895D01*
X71017458Y-39920071D01*
X71026364Y-39990507D01*
X70995777Y-40054577D01*
X70948353Y-40087608D01*
X70940319Y-40090789D01*
X70919457Y-40099049D01*
X70913044Y-40103709D01*
X70913041Y-40103710D01*
X70793930Y-40190248D01*
X70793926Y-40190252D01*
X70787513Y-40194911D01*
X70782460Y-40201019D01*
X70782458Y-40201021D01*
X70750313Y-40239878D01*
X70683555Y-40320575D01*
X70614114Y-40468144D01*
X70583554Y-40628347D01*
X70593794Y-40791116D01*
X70644192Y-40946225D01*
X70731581Y-41083927D01*
X70850469Y-41195571D01*
X70993387Y-41274140D01*
X71038339Y-41285682D01*
X71143677Y-41312729D01*
X71143678Y-41312729D01*
X71151354Y-41314700D01*
X71273508Y-41314700D01*
X71331323Y-41307396D01*
X71386840Y-41300383D01*
X71386843Y-41300382D01*
X71394705Y-41299389D01*
X71402071Y-41296472D01*
X71402073Y-41296472D01*
X71538973Y-41242269D01*
X71546343Y-41239351D01*
X71552756Y-41234691D01*
X71552759Y-41234690D01*
X71671870Y-41148152D01*
X71671874Y-41148148D01*
X71678287Y-41143489D01*
X71732875Y-41077504D01*
X71777192Y-41023933D01*
X71782245Y-41017825D01*
X71851686Y-40870256D01*
X71882246Y-40710053D01*
X71872006Y-40547284D01*
X71821608Y-40392175D01*
X71817689Y-40386000D01*
X87329118Y-40386000D01*
X87349756Y-40542762D01*
X87410264Y-40688841D01*
X87432515Y-40717839D01*
X87498005Y-40803187D01*
X87506518Y-40814282D01*
X87631959Y-40910536D01*
X87778038Y-40971044D01*
X87934800Y-40991682D01*
X87942988Y-40990604D01*
X88083374Y-40972122D01*
X88091562Y-40971044D01*
X88237641Y-40910536D01*
X88363082Y-40814282D01*
X88371596Y-40803187D01*
X88377878Y-40795000D01*
X98708318Y-40795000D01*
X98728956Y-40951762D01*
X98789464Y-41097841D01*
X98885718Y-41223282D01*
X99011159Y-41319536D01*
X99157238Y-41380044D01*
X99314000Y-41400682D01*
X99322188Y-41399604D01*
X99436080Y-41384610D01*
X99506229Y-41395549D01*
X99559327Y-41442678D01*
X99578517Y-41511031D01*
X99577448Y-41525972D01*
X99567018Y-41605200D01*
X99587656Y-41761962D01*
X99648164Y-41908041D01*
X99744418Y-42033482D01*
X99869859Y-42129736D01*
X100015938Y-42190244D01*
X100172700Y-42210882D01*
X100180888Y-42209804D01*
X100321274Y-42191322D01*
X100329462Y-42190244D01*
X100475541Y-42129736D01*
X100600982Y-42033482D01*
X100697236Y-41908041D01*
X100757744Y-41761962D01*
X100778382Y-41605200D01*
X100757744Y-41448438D01*
X100697236Y-41302359D01*
X100600982Y-41176918D01*
X100475541Y-41080664D01*
X100347753Y-41027732D01*
X100337091Y-41023316D01*
X100329462Y-41020156D01*
X100172700Y-40999518D01*
X100050620Y-41015590D01*
X99980471Y-41004651D01*
X99927373Y-40957522D01*
X99908183Y-40889169D01*
X99909252Y-40874221D01*
X99910800Y-40862469D01*
X99919682Y-40795000D01*
X99899044Y-40638238D01*
X99838536Y-40492159D01*
X99742282Y-40366718D01*
X99616841Y-40270464D01*
X99470762Y-40209956D01*
X99314000Y-40189318D01*
X99157238Y-40209956D01*
X99011159Y-40270464D01*
X98885718Y-40366718D01*
X98789464Y-40492159D01*
X98728956Y-40638238D01*
X98708318Y-40795000D01*
X88377878Y-40795000D01*
X88437085Y-40717839D01*
X88459336Y-40688841D01*
X88519844Y-40542762D01*
X88540482Y-40386000D01*
X88519844Y-40229238D01*
X88459336Y-40083159D01*
X88363082Y-39957718D01*
X88263575Y-39881364D01*
X95620318Y-39881364D01*
X95640956Y-40038126D01*
X95701464Y-40184205D01*
X95797718Y-40309646D01*
X95923159Y-40405900D01*
X96069238Y-40466408D01*
X96226000Y-40487046D01*
X96234188Y-40485968D01*
X96236923Y-40485608D01*
X96382762Y-40466408D01*
X96528841Y-40405900D01*
X96654282Y-40309646D01*
X96659305Y-40303100D01*
X96659308Y-40303097D01*
X96703467Y-40245547D01*
X96760805Y-40203679D01*
X96831676Y-40199457D01*
X96880135Y-40222288D01*
X96903058Y-40239878D01*
X96903061Y-40239880D01*
X96909610Y-40244905D01*
X97055689Y-40305413D01*
X97063877Y-40306491D01*
X97103611Y-40311722D01*
X97212451Y-40326051D01*
X97220639Y-40324973D01*
X97254046Y-40320575D01*
X97321291Y-40311722D01*
X97361025Y-40306491D01*
X97369213Y-40305413D01*
X97515292Y-40244905D01*
X97640733Y-40148651D01*
X97736987Y-40023210D01*
X97797495Y-39877131D01*
X97818133Y-39720369D01*
X97799667Y-39580100D01*
X100181518Y-39580100D01*
X100182596Y-39588288D01*
X100197528Y-39701705D01*
X100202156Y-39736862D01*
X100262664Y-39882941D01*
X100358918Y-40008382D01*
X100484359Y-40104636D01*
X100630438Y-40165144D01*
X100787200Y-40185782D01*
X100795388Y-40184704D01*
X100799179Y-40184205D01*
X100943962Y-40165144D01*
X101090041Y-40104636D01*
X101215482Y-40008382D01*
X101311736Y-39882941D01*
X101372244Y-39736862D01*
X101376873Y-39701705D01*
X101391804Y-39588288D01*
X101392882Y-39580100D01*
X101376160Y-39453082D01*
X101373322Y-39431526D01*
X101372244Y-39423338D01*
X101311736Y-39277259D01*
X101215482Y-39151818D01*
X101202647Y-39141969D01*
X101163118Y-39111638D01*
X101090041Y-39055564D01*
X100943962Y-38995056D01*
X100787200Y-38974418D01*
X100630438Y-38995056D01*
X100484359Y-39055564D01*
X100411282Y-39111638D01*
X100371754Y-39141969D01*
X100358918Y-39151818D01*
X100262664Y-39277259D01*
X100202156Y-39423338D01*
X100201078Y-39431526D01*
X100198240Y-39453082D01*
X100181518Y-39580100D01*
X97799667Y-39580100D01*
X97799459Y-39578523D01*
X97798573Y-39571795D01*
X97797495Y-39563607D01*
X97736987Y-39417528D01*
X97640733Y-39292087D01*
X97632230Y-39285562D01*
X97575394Y-39241951D01*
X97515292Y-39195833D01*
X97369213Y-39135325D01*
X97329085Y-39130042D01*
X97260373Y-39120996D01*
X97212451Y-39114687D01*
X97095820Y-39130042D01*
X97025673Y-39119103D01*
X96972574Y-39071975D01*
X96953384Y-39003621D01*
X96974195Y-38935743D01*
X96979412Y-38928416D01*
X97039509Y-38850095D01*
X97044536Y-38843544D01*
X97105044Y-38697465D01*
X97106902Y-38683356D01*
X97116484Y-38610568D01*
X97125682Y-38540703D01*
X97114222Y-38453654D01*
X97106122Y-38392129D01*
X97105044Y-38383941D01*
X97044536Y-38237862D01*
X96948282Y-38112421D01*
X96822841Y-38016167D01*
X96676762Y-37955659D01*
X96520000Y-37935021D01*
X96363238Y-37955659D01*
X96217159Y-38016167D01*
X96091718Y-38112421D01*
X95995464Y-38237862D01*
X95934956Y-38383941D01*
X95933878Y-38392129D01*
X95925778Y-38453654D01*
X95914318Y-38540703D01*
X95923516Y-38610568D01*
X95933099Y-38683356D01*
X95934956Y-38697465D01*
X95995464Y-38843544D01*
X96091718Y-38968985D01*
X96098264Y-38974008D01*
X96098268Y-38974012D01*
X96211213Y-39060678D01*
X96253080Y-39118016D01*
X96257302Y-39188887D01*
X96222538Y-39250789D01*
X96159825Y-39284071D01*
X96150960Y-39285561D01*
X96069238Y-39296320D01*
X95923159Y-39356828D01*
X95797718Y-39453082D01*
X95701464Y-39578523D01*
X95640956Y-39724602D01*
X95620318Y-39881364D01*
X88263575Y-39881364D01*
X88237641Y-39861464D01*
X88091562Y-39800956D01*
X88054647Y-39796096D01*
X87942988Y-39781396D01*
X87934800Y-39780318D01*
X87926612Y-39781396D01*
X87814954Y-39796096D01*
X87778038Y-39800956D01*
X87631959Y-39861464D01*
X87506518Y-39957718D01*
X87410264Y-40083159D01*
X87349756Y-40229238D01*
X87329118Y-40386000D01*
X71817689Y-40386000D01*
X71734219Y-40254473D01*
X71684250Y-40207549D01*
X71648286Y-40146337D01*
X71651123Y-40075398D01*
X71691864Y-40017253D01*
X71757572Y-39990365D01*
X71770504Y-39989700D01*
X72336722Y-39989700D01*
X72428269Y-39979027D01*
X72459456Y-39975391D01*
X72459458Y-39975391D01*
X72466728Y-39974543D01*
X72473605Y-39972047D01*
X72473608Y-39972046D01*
X72624352Y-39917328D01*
X72631231Y-39914831D01*
X72777585Y-39818877D01*
X72897940Y-39691828D01*
X72985839Y-39540498D01*
X73036567Y-39373007D01*
X73043057Y-39268400D01*
X81131518Y-39268400D01*
X81132596Y-39276588D01*
X81150289Y-39410977D01*
X81152156Y-39425162D01*
X81212664Y-39571241D01*
X81308918Y-39696682D01*
X81434359Y-39792936D01*
X81580438Y-39853444D01*
X81588626Y-39854522D01*
X81618318Y-39858431D01*
X81737200Y-39874082D01*
X81745388Y-39873004D01*
X81764287Y-39870516D01*
X81856082Y-39858431D01*
X81885774Y-39854522D01*
X81893962Y-39853444D01*
X82040041Y-39792936D01*
X82127795Y-39725600D01*
X83214318Y-39725600D01*
X83234956Y-39882362D01*
X83295464Y-40028441D01*
X83349643Y-40099049D01*
X83385929Y-40146337D01*
X83391718Y-40153882D01*
X83517159Y-40250136D01*
X83663238Y-40310644D01*
X83820000Y-40331282D01*
X83828188Y-40330204D01*
X83859734Y-40326051D01*
X83976762Y-40310644D01*
X84122841Y-40250136D01*
X84248282Y-40153882D01*
X84254072Y-40146337D01*
X84290357Y-40099049D01*
X84344536Y-40028441D01*
X84405044Y-39882362D01*
X84425682Y-39725600D01*
X84405044Y-39568838D01*
X84344536Y-39422759D01*
X84248282Y-39297318D01*
X84225794Y-39280062D01*
X84208002Y-39266410D01*
X84122841Y-39201064D01*
X83976762Y-39140556D01*
X83945992Y-39136505D01*
X83828188Y-39120996D01*
X83820000Y-39119918D01*
X83811812Y-39120996D01*
X83694009Y-39136505D01*
X83663238Y-39140556D01*
X83517159Y-39201064D01*
X83431998Y-39266410D01*
X83414207Y-39280062D01*
X83391718Y-39297318D01*
X83295464Y-39422759D01*
X83234956Y-39568838D01*
X83214318Y-39725600D01*
X82127795Y-39725600D01*
X82165482Y-39696682D01*
X82261736Y-39571241D01*
X82322244Y-39425162D01*
X82324112Y-39410977D01*
X82341804Y-39276588D01*
X82342882Y-39268400D01*
X82327534Y-39151818D01*
X82323322Y-39119826D01*
X82322244Y-39111638D01*
X82261736Y-38965559D01*
X82165482Y-38840118D01*
X82040041Y-38743864D01*
X81893962Y-38683356D01*
X81737200Y-38662718D01*
X81580438Y-38683356D01*
X81434359Y-38743864D01*
X81308918Y-38840118D01*
X81212664Y-38965559D01*
X81152156Y-39111638D01*
X81151078Y-39119826D01*
X81146866Y-39151818D01*
X81131518Y-39268400D01*
X73043057Y-39268400D01*
X73047403Y-39198338D01*
X73040535Y-39158364D01*
X73019006Y-39033075D01*
X73019005Y-39033073D01*
X73017766Y-39025860D01*
X72949246Y-38864827D01*
X72845517Y-38723876D01*
X72839939Y-38719137D01*
X72839936Y-38719134D01*
X72717724Y-38615307D01*
X72717720Y-38615304D01*
X72712145Y-38610568D01*
X72627962Y-38567582D01*
X72562800Y-38534308D01*
X72562798Y-38534307D01*
X72556284Y-38530981D01*
X72549179Y-38529242D01*
X72549175Y-38529241D01*
X72455641Y-38506354D01*
X72386294Y-38489385D01*
X72380694Y-38489038D01*
X72380690Y-38489037D01*
X72377191Y-38488820D01*
X72377182Y-38488820D01*
X72375252Y-38488700D01*
X71349078Y-38488700D01*
X71257531Y-38499373D01*
X71226344Y-38503009D01*
X71226342Y-38503009D01*
X71219072Y-38503857D01*
X71212195Y-38506353D01*
X71212192Y-38506354D01*
X71135181Y-38534308D01*
X71054569Y-38563569D01*
X70908215Y-38659523D01*
X70787860Y-38786572D01*
X70699961Y-38937902D01*
X70649233Y-39105393D01*
X70648338Y-39119826D01*
X70644902Y-39175199D01*
X70620720Y-39241951D01*
X70564288Y-39285032D01*
X70493524Y-39290765D01*
X70442440Y-39267360D01*
X70403942Y-39237820D01*
X70356041Y-39201064D01*
X70209962Y-39140556D01*
X70179192Y-39136505D01*
X70061388Y-39120996D01*
X70053200Y-39119918D01*
X70045012Y-39120996D01*
X69927209Y-39136505D01*
X69896438Y-39140556D01*
X69750359Y-39201064D01*
X69665198Y-39266410D01*
X69647407Y-39280062D01*
X69624918Y-39297318D01*
X69528664Y-39422759D01*
X69468156Y-39568838D01*
X69447518Y-39725600D01*
X68582366Y-39725600D01*
X68607815Y-39685497D01*
X68666937Y-39592336D01*
X68678021Y-39561209D01*
X68724819Y-39429786D01*
X68724820Y-39429781D01*
X68727181Y-39423151D01*
X68728014Y-39416165D01*
X68728015Y-39416161D01*
X68744765Y-39275682D01*
X68748445Y-39244824D01*
X68742566Y-39188887D01*
X68730410Y-39073225D01*
X68730409Y-39073221D01*
X68729673Y-39066217D01*
X68715934Y-39025860D01*
X68674068Y-38902877D01*
X68674067Y-38902874D01*
X68671797Y-38896207D01*
X68639399Y-38843544D01*
X68581385Y-38749245D01*
X68577694Y-38743245D01*
X68572768Y-38738214D01*
X68572765Y-38738211D01*
X68499892Y-38663796D01*
X68452041Y-38614932D01*
X68445270Y-38610568D01*
X68307009Y-38521465D01*
X68301083Y-38517646D01*
X68294463Y-38515237D01*
X68294460Y-38515235D01*
X68138939Y-38458630D01*
X68138936Y-38458629D01*
X68132322Y-38456222D01*
X68075592Y-38449056D01*
X67997545Y-38439196D01*
X67997542Y-38439196D01*
X67993617Y-38438700D01*
X67297745Y-38438700D01*
X67164428Y-38453654D01*
X67157775Y-38455971D01*
X67157774Y-38455971D01*
X67098317Y-38476676D01*
X66994827Y-38512715D01*
X66988853Y-38516448D01*
X66988851Y-38516449D01*
X66903283Y-38569918D01*
X66842525Y-38607884D01*
X66787307Y-38662718D01*
X66720090Y-38729467D01*
X66720087Y-38729471D01*
X66715093Y-38734430D01*
X66618863Y-38886064D01*
X66616498Y-38892706D01*
X66560981Y-39048614D01*
X66560980Y-39048619D01*
X66558619Y-39055249D01*
X66557786Y-39062235D01*
X66557785Y-39062239D01*
X66548930Y-39136505D01*
X66537355Y-39233576D01*
X65380100Y-39233576D01*
X65380100Y-38398590D01*
X76281723Y-38398590D01*
X76282963Y-38405805D01*
X76282963Y-38405808D01*
X76301975Y-38516449D01*
X76311163Y-38569918D01*
X76379227Y-38729879D01*
X76482264Y-38869891D01*
X76614748Y-38982444D01*
X76769571Y-39061500D01*
X76776677Y-39063239D01*
X76776680Y-39063240D01*
X76858515Y-39083265D01*
X76938428Y-39102820D01*
X76945929Y-39103285D01*
X76947449Y-39103380D01*
X76947462Y-39103380D01*
X76949390Y-39103500D01*
X77074730Y-39103500D01*
X77165429Y-39092926D01*
X77196598Y-39089292D01*
X77196600Y-39089292D01*
X77203870Y-39088444D01*
X77210747Y-39085948D01*
X77210750Y-39085947D01*
X77360398Y-39031627D01*
X77367277Y-39029130D01*
X77512656Y-38933815D01*
X77632209Y-38807612D01*
X77677360Y-38729879D01*
X77715844Y-38663624D01*
X77715845Y-38663621D01*
X77719522Y-38657291D01*
X77769913Y-38490915D01*
X77770722Y-38477888D01*
X77775641Y-38398590D01*
X78581723Y-38398590D01*
X78582963Y-38405805D01*
X78582963Y-38405808D01*
X78601975Y-38516449D01*
X78611163Y-38569918D01*
X78679227Y-38729879D01*
X78782264Y-38869891D01*
X78914748Y-38982444D01*
X79069571Y-39061500D01*
X79076677Y-39063239D01*
X79076680Y-39063240D01*
X79158515Y-39083265D01*
X79238428Y-39102820D01*
X79245929Y-39103285D01*
X79247449Y-39103380D01*
X79247462Y-39103380D01*
X79249390Y-39103500D01*
X79374730Y-39103500D01*
X79465429Y-39092926D01*
X79496598Y-39089292D01*
X79496600Y-39089292D01*
X79503870Y-39088444D01*
X79510747Y-39085948D01*
X79510750Y-39085947D01*
X79660398Y-39031627D01*
X79667277Y-39029130D01*
X79812656Y-38933815D01*
X79932209Y-38807612D01*
X79977360Y-38729879D01*
X80015844Y-38663624D01*
X80015845Y-38663621D01*
X80019522Y-38657291D01*
X80069913Y-38490915D01*
X80070722Y-38477888D01*
X80075726Y-38397221D01*
X80080677Y-38317410D01*
X80064813Y-38225085D01*
X80052477Y-38153298D01*
X80051237Y-38146082D01*
X79983173Y-37986121D01*
X79880136Y-37846109D01*
X79747652Y-37733556D01*
X79592829Y-37654500D01*
X79585723Y-37652761D01*
X79585720Y-37652760D01*
X79503885Y-37632735D01*
X79423972Y-37613180D01*
X79416471Y-37612715D01*
X79414951Y-37612620D01*
X79414938Y-37612620D01*
X79413010Y-37612500D01*
X79287670Y-37612500D01*
X79196971Y-37623074D01*
X79165802Y-37626708D01*
X79165800Y-37626708D01*
X79158530Y-37627556D01*
X79151653Y-37630052D01*
X79151650Y-37630053D01*
X79075129Y-37657829D01*
X78995123Y-37686870D01*
X78849744Y-37782185D01*
X78730191Y-37908388D01*
X78700730Y-37959109D01*
X78662281Y-38025305D01*
X78642878Y-38058709D01*
X78640756Y-38065717D01*
X78640755Y-38065718D01*
X78638096Y-38074497D01*
X78592487Y-38225085D01*
X78581723Y-38398590D01*
X77775641Y-38398590D01*
X77775726Y-38397221D01*
X77780677Y-38317410D01*
X77764813Y-38225085D01*
X77752477Y-38153298D01*
X77751237Y-38146082D01*
X77683173Y-37986121D01*
X77580136Y-37846109D01*
X77447652Y-37733556D01*
X77292829Y-37654500D01*
X77285723Y-37652761D01*
X77285720Y-37652760D01*
X77203885Y-37632735D01*
X77123972Y-37613180D01*
X77116471Y-37612715D01*
X77114951Y-37612620D01*
X77114938Y-37612620D01*
X77113010Y-37612500D01*
X76987670Y-37612500D01*
X76896971Y-37623074D01*
X76865802Y-37626708D01*
X76865800Y-37626708D01*
X76858530Y-37627556D01*
X76851653Y-37630052D01*
X76851650Y-37630053D01*
X76775129Y-37657829D01*
X76695123Y-37686870D01*
X76549744Y-37782185D01*
X76430191Y-37908388D01*
X76400730Y-37959109D01*
X76362281Y-38025305D01*
X76342878Y-38058709D01*
X76340756Y-38065717D01*
X76340755Y-38065718D01*
X76338096Y-38074497D01*
X76292487Y-38225085D01*
X76281723Y-38398590D01*
X65380100Y-38398590D01*
X65380100Y-37592000D01*
X68126718Y-37592000D01*
X68147356Y-37748762D01*
X68207864Y-37894841D01*
X68304118Y-38020282D01*
X68310664Y-38025305D01*
X68335294Y-38044204D01*
X68429559Y-38116536D01*
X68575638Y-38177044D01*
X68732400Y-38197682D01*
X68740588Y-38196604D01*
X68880974Y-38178122D01*
X68889162Y-38177044D01*
X69035241Y-38116536D01*
X69129506Y-38044204D01*
X69154136Y-38025305D01*
X69160682Y-38020282D01*
X69256936Y-37894841D01*
X69317444Y-37748762D01*
X69338082Y-37592000D01*
X69333209Y-37554988D01*
X72684930Y-37554988D01*
X72686008Y-37563176D01*
X72702293Y-37686870D01*
X72705568Y-37711750D01*
X72766076Y-37857829D01*
X72862330Y-37983270D01*
X72987771Y-38079524D01*
X73133850Y-38140032D01*
X73142038Y-38141110D01*
X73185881Y-38146882D01*
X73290612Y-38160670D01*
X73298800Y-38159592D01*
X73439186Y-38141110D01*
X73447374Y-38140032D01*
X73593453Y-38079524D01*
X73718894Y-37983270D01*
X73815148Y-37857829D01*
X73875656Y-37711750D01*
X73878932Y-37686870D01*
X73895216Y-37563176D01*
X73896294Y-37554988D01*
X73875656Y-37398226D01*
X73815148Y-37252147D01*
X73718894Y-37126706D01*
X73593453Y-37030452D01*
X73447374Y-36969944D01*
X73290612Y-36949306D01*
X73133850Y-36969944D01*
X72987771Y-37030452D01*
X72862330Y-37126706D01*
X72766076Y-37252147D01*
X72705568Y-37398226D01*
X72684930Y-37554988D01*
X69333209Y-37554988D01*
X69317444Y-37435238D01*
X69256936Y-37289159D01*
X69160682Y-37163718D01*
X69035241Y-37067464D01*
X68889162Y-37006956D01*
X68732400Y-36986318D01*
X68575638Y-37006956D01*
X68429559Y-37067464D01*
X68304118Y-37163718D01*
X68207864Y-37289159D01*
X68147356Y-37435238D01*
X68126718Y-37592000D01*
X65380100Y-37592000D01*
X65380100Y-36753300D01*
X65400102Y-36685179D01*
X65453758Y-36638686D01*
X65506100Y-36627300D01*
X86474037Y-36627300D01*
X86542158Y-36647302D01*
G37*
%TD.AperFunction*%
%TD*%
M02*
