M48
; DRILL file {KiCad (6.0.2)} date Mon Jul 11 18:19:16 2022
; FORMAT={-:-/ absolute / inch / decimal}
; #@! TF.CreationDate,2022-07-11T18:19:16+02:00
; #@! TF.GenerationSoftware,Kicad,Pcbnew,(6.0.2)
; #@! TF.FileFunction,Plated,1,4,PTH
FMAT,2
INCH
; #@! TA.AperFunction,Plated,PTH,ViaDrill
T1C0.0157
; #@! TA.AperFunction,Plated,PTH,ComponentDrill
T2C0.0276
; #@! TA.AperFunction,Plated,PTH,ComponentDrill
T3C0.0295
; #@! TA.AperFunction,Plated,PTH,ComponentDrill
T4C0.0374
%
G90
G05
T1
X2.602Y-1.85
X2.646Y-1.806
X2.664Y-1.712
X2.682Y-1.786
X2.706Y-1.48
X2.7327Y-1.6987
X2.758Y-1.564
X2.8855Y-1.4785
X2.922Y-1.68
X2.924Y-1.7218
X2.934Y-1.778
X3.0853Y-1.9407
X3.132Y-1.636
X3.218Y-1.546
X3.3Y-1.564
X3.324Y-1.75
X3.332Y-1.6472
X3.4079Y-1.678
X3.414Y-1.474
X3.462Y-1.59
X3.4956Y-1.8766
X3.538Y-1.734
X3.538Y-1.908
X3.612Y-1.716
X3.614Y-1.7699
X3.6299Y-1.862
X3.656Y-1.796
X3.688Y-1.8351
X3.694Y-1.642
X3.752Y-1.478
X3.762Y-1.848
X3.772Y-1.676
X3.7884Y-1.5701
X3.8Y-1.478
X3.8Y-1.5174
X3.804Y-1.848
X3.8273Y-1.5638
X3.832Y-1.922
X3.888Y-1.478
X3.91Y-1.6061
X3.9419Y-1.812
X3.9438Y-1.638
X3.966Y-1.72
X3.968Y-1.502
X3.968Y-1.5583
X3.968Y-1.936
X3.97Y-1.678
X4.014Y-1.95
T3
X2.8044Y-1.6011
X2.8044Y-1.8287
T4
X3.0327Y-1.5102
X3.0327Y-1.9115
X3.1233Y-1.5102
X3.1233Y-1.9115
T2
G00X2.6493Y-1.5449
M15
G01X2.6769Y-1.5449
M16
G05
G00X2.6493Y-1.885
M15
G01X2.6769Y-1.885
M16
G05
G00X2.8107Y-1.5449
M15
G01X2.8462Y-1.5449
M16
G05
G00X2.8107Y-1.885
M15
G01X2.8462Y-1.885
M16
G05
T0
M30
