%TF.GenerationSoftware,KiCad,Pcbnew,(6.0.2)*%
%TF.CreationDate,2022-07-11T18:19:18+02:00*%
%TF.ProjectId,ESP32-MicroView,45535033-322d-44d6-9963-726f56696577,rev?*%
%TF.SameCoordinates,Original*%
%TF.FileFunction,Legend,Top*%
%TF.FilePolarity,Positive*%
%FSLAX46Y46*%
G04 Gerber Fmt 4.6, Leading zero omitted, Abs format (unit mm)*
G04 Created by KiCad (PCBNEW (6.0.2)) date 2022-07-11 18:19:18*
%MOMM*%
%LPD*%
G01*
G04 APERTURE LIST*
%ADD10C,0.150000*%
%ADD11C,0.250000*%
%ADD12C,0.120000*%
G04 APERTURE END LIST*
D10*
X97902780Y-48307047D02*
X98617066Y-48307047D01*
X98759923Y-48354666D01*
X98855161Y-48449904D01*
X98902780Y-48592761D01*
X98902780Y-48688000D01*
X98902780Y-47354666D02*
X98902780Y-47830857D01*
X97902780Y-47830857D01*
X98807542Y-46449904D02*
X98855161Y-46497523D01*
X98902780Y-46640380D01*
X98902780Y-46735619D01*
X98855161Y-46878476D01*
X98759923Y-46973714D01*
X98664685Y-47021333D01*
X98474209Y-47068952D01*
X98331352Y-47068952D01*
X98140876Y-47021333D01*
X98045638Y-46973714D01*
X97950400Y-46878476D01*
X97902780Y-46735619D01*
X97902780Y-46640380D01*
X97950400Y-46497523D01*
X97998019Y-46449904D01*
X97902780Y-45735619D02*
X98617066Y-45735619D01*
X98759923Y-45783238D01*
X98855161Y-45878476D01*
X98902780Y-46021333D01*
X98902780Y-46116571D01*
X98902780Y-44783238D02*
X98902780Y-45259428D01*
X97902780Y-45259428D01*
X98807542Y-43878476D02*
X98855161Y-43926095D01*
X98902780Y-44068952D01*
X98902780Y-44164190D01*
X98855161Y-44307047D01*
X98759923Y-44402285D01*
X98664685Y-44449904D01*
X98474209Y-44497523D01*
X98331352Y-44497523D01*
X98140876Y-44449904D01*
X98045638Y-44402285D01*
X97950400Y-44307047D01*
X97902780Y-44164190D01*
X97902780Y-44068952D01*
X97950400Y-43926095D01*
X97998019Y-43878476D01*
X97902780Y-43164190D02*
X98617066Y-43164190D01*
X98759923Y-43211809D01*
X98855161Y-43307047D01*
X98902780Y-43449904D01*
X98902780Y-43545142D01*
X98902780Y-42211809D02*
X98902780Y-42688000D01*
X97902780Y-42688000D01*
X98807542Y-41307047D02*
X98855161Y-41354666D01*
X98902780Y-41497523D01*
X98902780Y-41592761D01*
X98855161Y-41735619D01*
X98759923Y-41830857D01*
X98664685Y-41878476D01*
X98474209Y-41926095D01*
X98331352Y-41926095D01*
X98140876Y-41878476D01*
X98045638Y-41830857D01*
X97950400Y-41735619D01*
X97902780Y-41592761D01*
X97902780Y-41497523D01*
X97950400Y-41354666D01*
X97998019Y-41307047D01*
X97902780Y-40592761D02*
X98617066Y-40592761D01*
X98759923Y-40640380D01*
X98855161Y-40735619D01*
X98902780Y-40878476D01*
X98902780Y-40973714D01*
X98902780Y-39640380D02*
X98902780Y-40116571D01*
X97902780Y-40116571D01*
X98807542Y-38735619D02*
X98855161Y-38783238D01*
X98902780Y-38926095D01*
X98902780Y-39021333D01*
X98855161Y-39164190D01*
X98759923Y-39259428D01*
X98664685Y-39307047D01*
X98474209Y-39354666D01*
X98331352Y-39354666D01*
X98140876Y-39307047D01*
X98045638Y-39259428D01*
X97950400Y-39164190D01*
X97902780Y-39021333D01*
X97902780Y-38926095D01*
X97950400Y-38783238D01*
X97998019Y-38735619D01*
X72597923Y-38095180D02*
X72264590Y-37618990D01*
X72026495Y-38095180D02*
X72026495Y-37095180D01*
X72407447Y-37095180D01*
X72502685Y-37142800D01*
X72550304Y-37190419D01*
X72597923Y-37285657D01*
X72597923Y-37428514D01*
X72550304Y-37523752D01*
X72502685Y-37571371D01*
X72407447Y-37618990D01*
X72026495Y-37618990D01*
X66922685Y-37145980D02*
X67494114Y-37145980D01*
X67208400Y-38145980D02*
X67208400Y-37145980D01*
D11*
%TO.C,FPC1*%
X78874314Y-44926085D02*
X79302885Y-45068942D01*
X80017171Y-45068942D01*
X80302885Y-44926085D01*
X80445742Y-44783228D01*
X80588600Y-44497514D01*
X80588600Y-44211800D01*
X80445742Y-43926085D01*
X80302885Y-43783228D01*
X80017171Y-43640371D01*
X79445742Y-43497514D01*
X79160028Y-43354657D01*
X79017171Y-43211800D01*
X78874314Y-42926085D01*
X78874314Y-42640371D01*
X79017171Y-42354657D01*
X79160028Y-42211800D01*
X79445742Y-42068942D01*
X80160028Y-42068942D01*
X80588600Y-42211800D01*
X81445742Y-42068942D02*
X83160028Y-42068942D01*
X82302885Y-45068942D02*
X82302885Y-42068942D01*
X83874314Y-42068942D02*
X85874314Y-42068942D01*
X84588600Y-45068942D01*
X86731457Y-42068942D02*
X88731457Y-42068942D01*
X87445742Y-45068942D01*
X89588600Y-42068942D02*
X91445742Y-42068942D01*
X90445742Y-43211800D01*
X90874314Y-43211800D01*
X91160028Y-43354657D01*
X91302885Y-43497514D01*
X91445742Y-43783228D01*
X91445742Y-44497514D01*
X91302885Y-44783228D01*
X91160028Y-44926085D01*
X90874314Y-45068942D01*
X90017171Y-45068942D01*
X89731457Y-44926085D01*
X89588600Y-44783228D01*
X94160028Y-42068942D02*
X92731457Y-42068942D01*
X92588600Y-43497514D01*
X92731457Y-43354657D01*
X93017171Y-43211800D01*
X93731457Y-43211800D01*
X94017171Y-43354657D01*
X94160028Y-43497514D01*
X94302885Y-43783228D01*
X94302885Y-44497514D01*
X94160028Y-44783228D01*
X94017171Y-44926085D01*
X93731457Y-45068942D01*
X93017171Y-45068942D01*
X92731457Y-44926085D01*
X92588600Y-44783228D01*
D10*
%TO.C,U2*%
X71232780Y-43840304D02*
X72042304Y-43840304D01*
X72137542Y-43792685D01*
X72185161Y-43745066D01*
X72232780Y-43649828D01*
X72232780Y-43459352D01*
X72185161Y-43364114D01*
X72137542Y-43316495D01*
X72042304Y-43268876D01*
X71232780Y-43268876D01*
X71328019Y-42840304D02*
X71280400Y-42792685D01*
X71232780Y-42697447D01*
X71232780Y-42459352D01*
X71280400Y-42364114D01*
X71328019Y-42316495D01*
X71423257Y-42268876D01*
X71518495Y-42268876D01*
X71661352Y-42316495D01*
X72232780Y-42887923D01*
X72232780Y-42268876D01*
D12*
%TO.C,FPC1*%
X73549200Y-36714200D02*
X101549200Y-36714200D01*
X101549200Y-36714200D02*
X101549200Y-50214200D01*
X101549200Y-50214200D02*
X73549200Y-50214200D01*
X73549200Y-50214200D02*
X73549200Y-36714200D01*
%TO.C,U2*%
X68884800Y-45044800D02*
X68084800Y-45044800D01*
X68884800Y-45044800D02*
X69684800Y-45044800D01*
X68884800Y-41924800D02*
X69684800Y-41924800D01*
X68884800Y-41924800D02*
X67084800Y-41924800D01*
%TO.C,C10*%
X68992636Y-46232400D02*
X68776964Y-46232400D01*
X68992636Y-45512400D02*
X68776964Y-45512400D01*
%TO.C,J2*%
X71413600Y-37592000D02*
G75*
G03*
X71413600Y-37592000I-700000J0D01*
G01*
%TO.C,J3*%
X69330800Y-37592000D02*
G75*
G03*
X69330800Y-37592000I-700000J0D01*
G01*
%TO.C,C5*%
X68776964Y-41355600D02*
X68992636Y-41355600D01*
X68776964Y-40635600D02*
X68992636Y-40635600D01*
%TO.C,J1*%
X70296000Y-49123600D02*
G75*
G03*
X70296000Y-49123600I-700000J0D01*
G01*
%TD*%
M02*
