%TF.GenerationSoftware,KiCad,Pcbnew,(6.0.2)*%
%TF.CreationDate,2022-07-11T18:19:18+02:00*%
%TF.ProjectId,ESP32-MicroView,45535033-322d-44d6-9963-726f56696577,rev?*%
%TF.SameCoordinates,Original*%
%TF.FileFunction,Soldermask,Bot*%
%TF.FilePolarity,Negative*%
%FSLAX46Y46*%
G04 Gerber Fmt 4.6, Leading zero omitted, Abs format (unit mm)*
G04 Created by KiCad (PCBNEW (6.0.2)) date 2022-07-11 18:19:18*
%MOMM*%
%LPD*%
G01*
G04 APERTURE LIST*
G04 Aperture macros list*
%AMRoundRect*
0 Rectangle with rounded corners*
0 $1 Rounding radius*
0 $2 $3 $4 $5 $6 $7 $8 $9 X,Y pos of 4 corners*
0 Add a 4 corners polygon primitive as box body*
4,1,4,$2,$3,$4,$5,$6,$7,$8,$9,$2,$3,0*
0 Add four circle primitives for the rounded corners*
1,1,$1+$1,$2,$3*
1,1,$1+$1,$4,$5*
1,1,$1+$1,$6,$7*
1,1,$1+$1,$8,$9*
0 Add four rect primitives between the rounded corners*
20,1,$1+$1,$2,$3,$4,$5,0*
20,1,$1+$1,$4,$5,$6,$7,0*
20,1,$1+$1,$6,$7,$8,$9,0*
20,1,$1+$1,$8,$9,$2,$3,0*%
G04 Aperture macros list end*
%ADD10R,1.200000X0.300000*%
%ADD11R,3.300000X2.200000*%
%ADD12RoundRect,0.135000X0.185000X-0.135000X0.185000X0.135000X-0.185000X0.135000X-0.185000X-0.135000X0*%
%ADD13C,0.750000*%
%ADD14O,1.800000X1.200000*%
%ADD15O,2.000000X1.100000*%
%ADD16R,1.300000X0.500000*%
%ADD17R,1.300000X0.280000*%
%ADD18RoundRect,0.160000X0.197500X0.160000X-0.197500X0.160000X-0.197500X-0.160000X0.197500X-0.160000X0*%
%ADD19RoundRect,0.225000X0.225000X0.250000X-0.225000X0.250000X-0.225000X-0.250000X0.225000X-0.250000X0*%
%ADD20C,0.950000*%
%ADD21R,1.200000X1.400000*%
%ADD22R,1.600000X1.300000*%
%ADD23R,1.000000X1.750000*%
%ADD24RoundRect,0.150000X0.150000X-0.587500X0.150000X0.587500X-0.150000X0.587500X-0.150000X-0.587500X0*%
%ADD25RoundRect,0.225000X-0.225000X-0.250000X0.225000X-0.250000X0.225000X0.250000X-0.225000X0.250000X0*%
%ADD26RoundRect,0.140000X0.170000X-0.140000X0.170000X0.140000X-0.170000X0.140000X-0.170000X-0.140000X0*%
%ADD27R,1.400000X1.200000*%
%ADD28RoundRect,0.200000X-0.200000X-0.275000X0.200000X-0.275000X0.200000X0.275000X-0.200000X0.275000X0*%
%ADD29RoundRect,0.135000X-0.185000X0.135000X-0.185000X-0.135000X0.185000X-0.135000X0.185000X0.135000X0*%
%ADD30RoundRect,0.225000X-0.250000X0.225000X-0.250000X-0.225000X0.250000X-0.225000X0.250000X0.225000X0*%
%ADD31RoundRect,0.062500X-0.062500X0.337500X-0.062500X-0.337500X0.062500X-0.337500X0.062500X0.337500X0*%
%ADD32RoundRect,0.062500X-0.337500X0.062500X-0.337500X-0.062500X0.337500X-0.062500X0.337500X0.062500X0*%
%ADD33R,3.700000X3.700000*%
G04 APERTURE END LIST*
D10*
%TO.C,FPC1*%
X81930200Y-45239200D03*
X81930200Y-44739200D03*
X81930200Y-44239200D03*
X81930200Y-43739200D03*
X81930200Y-43239200D03*
X81930200Y-42739200D03*
X81930200Y-42239200D03*
X81930200Y-41739200D03*
D11*
X84090200Y-40139200D03*
X84090200Y-46839200D03*
%TD*%
D12*
%TO.C,R4*%
X96520000Y-38508400D03*
X96520000Y-37488400D03*
%TD*%
D13*
%TO.C,USBC1*%
X71232900Y-46449200D03*
X71232900Y-40669200D03*
D14*
X67642900Y-39239200D03*
D15*
X71842900Y-47879200D03*
X71842900Y-39239200D03*
D14*
X67642900Y-47879200D03*
D16*
X72902900Y-46759200D03*
X72902900Y-45959200D03*
D17*
X72902900Y-44809200D03*
X72902900Y-43809200D03*
X72902900Y-43309200D03*
X72902900Y-42309200D03*
D16*
X72902900Y-41159200D03*
X72902900Y-40359200D03*
D17*
X72902900Y-41809200D03*
X72902900Y-42809200D03*
X72902900Y-44309200D03*
X72902900Y-45309200D03*
%TD*%
D18*
%TO.C,R8*%
X79540700Y-41554400D03*
X78345700Y-41554400D03*
%TD*%
D19*
%TO.C,C4*%
X91707000Y-43586400D03*
X90157000Y-43586400D03*
%TD*%
D20*
%TO.C,S2*%
X77031200Y-38358000D03*
X79331200Y-38358000D03*
D21*
X76081200Y-39758000D03*
X80281200Y-39758000D03*
D22*
X81581200Y-37458000D03*
X74781200Y-37458000D03*
%TD*%
D18*
%TO.C,R7*%
X95707200Y-49377600D03*
X94512200Y-49377600D03*
%TD*%
D23*
%TO.C,T1*%
X92664400Y-38049200D03*
X89504400Y-38049200D03*
%TD*%
D24*
%TO.C,Q1*%
X80045600Y-45082700D03*
X78145600Y-45082700D03*
X79095600Y-43207700D03*
%TD*%
D25*
%TO.C,C7*%
X90157000Y-41910000D03*
X91707000Y-41910000D03*
%TD*%
D24*
%TO.C,Q2*%
X76454000Y-45059600D03*
X74554000Y-45059600D03*
X75504000Y-43184600D03*
%TD*%
D26*
%TO.C,C3*%
X99872800Y-38478400D03*
X99872800Y-37518400D03*
%TD*%
%TO.C,C1*%
X98755200Y-38478400D03*
X98755200Y-37518400D03*
%TD*%
D27*
%TO.C,Y1*%
X90086000Y-47003600D03*
X92286000Y-47003600D03*
X92286000Y-48703600D03*
X90086000Y-48703600D03*
%TD*%
D12*
%TO.C,R1*%
X97637600Y-38508400D03*
X97637600Y-37488400D03*
%TD*%
D26*
%TO.C,C2*%
X95351600Y-38478400D03*
X95351600Y-37518400D03*
%TD*%
D28*
%TO.C,F2*%
X68923400Y-49377600D03*
X70573400Y-49377600D03*
%TD*%
D25*
%TO.C,C6*%
X90157000Y-40284400D03*
X91707000Y-40284400D03*
%TD*%
D18*
%TO.C,R9*%
X76187900Y-41554400D03*
X74992900Y-41554400D03*
%TD*%
D26*
%TO.C,C8*%
X100787200Y-40459600D03*
X100787200Y-39499600D03*
%TD*%
D29*
%TO.C,R3*%
X99618800Y-48105600D03*
X99618800Y-49125600D03*
%TD*%
D30*
%TO.C,C9*%
X97993200Y-47586600D03*
X97993200Y-49136600D03*
%TD*%
D29*
%TO.C,R2*%
X100787200Y-48105600D03*
X100787200Y-49125600D03*
%TD*%
D31*
%TO.C,U1*%
X94973200Y-40882400D03*
X95473200Y-40882400D03*
X95973200Y-40882400D03*
X96473200Y-40882400D03*
X96973200Y-40882400D03*
X97473200Y-40882400D03*
X97973200Y-40882400D03*
X98473200Y-40882400D03*
D32*
X99173200Y-41582400D03*
X99173200Y-42082400D03*
X99173200Y-42582400D03*
X99173200Y-43082400D03*
X99173200Y-43582400D03*
X99173200Y-44082400D03*
X99173200Y-44582400D03*
X99173200Y-45082400D03*
D31*
X98473200Y-45782400D03*
X97973200Y-45782400D03*
X97473200Y-45782400D03*
X96973200Y-45782400D03*
X96473200Y-45782400D03*
X95973200Y-45782400D03*
X95473200Y-45782400D03*
X94973200Y-45782400D03*
D32*
X94273200Y-45082400D03*
X94273200Y-44582400D03*
X94273200Y-44082400D03*
X94273200Y-43582400D03*
X94273200Y-43082400D03*
X94273200Y-42582400D03*
X94273200Y-42082400D03*
X94273200Y-41582400D03*
D33*
X96723200Y-43332400D03*
%TD*%
D20*
%TO.C,S1*%
X79331200Y-48552300D03*
X77031200Y-48552300D03*
D21*
X80281200Y-47152300D03*
X76081200Y-47152300D03*
D22*
X74781200Y-49452300D03*
X81581200Y-49452300D03*
%TD*%
M02*
